<?xml version="1.0" standalone="no"?>
<!DOCTYPE svg PUBLIC "-//W3C//DTD SVG 20010904//EN"
 "http://www.w3.org/TR/2001/REC-SVG-20010904/DTD/svg10.dtd">
<svg version="1.0" xmlns="http://www.w3.org/2000/svg"
 width="120.000000pt" height="120.000000pt" viewBox="0 0 120.000000 120.000000"
 preserveAspectRatio="xMidYMid meet">
<metadata>
Created by potrace 1.14, written by Peter Selinger 2001-2017
</metadata>
<g transform="translate(0.000000,120.000000) scale(0.100000,-0.100000)"
fill="#000000" stroke="none">
<path d="M231 1190 c-44 -10 -81 -39 -106 -81 -19 -33 -20 -52 -20 -454 0
-420 0 -420 23 -463 37 -69 81 -82 279 -82 67 0 129 -3 138 -6 9 -4 23 -24 32
-45 8 -22 19 -39 24 -39 5 0 16 17 24 37 9 21 21 40 27 44 6 4 68 8 137 8 69
1 145 7 169 13 55 14 96 55 110 109 14 57 15 766 0 836 -7 34 -20 61 -38 78
-53 51 -78 54 -435 53 -181 0 -345 -4 -364 -8z"/>
</g>
</svg>
